<?xml version="1.0" standalone="no"?>
<!DOCTYPE svg PUBLIC "-//W3C//DTD SVG 20010904//EN"
 "http://www.w3.org/TR/2001/REC-SVG-20010904/DTD/svg10.dtd">
<svg version="1.0" xmlns="http://www.w3.org/2000/svg"
 width="1024.000000pt" height="1024.000000pt" viewBox="0 0 1024.000000 1024.000000"
 preserveAspectRatio="xMidYMid meet">
<metadata>
Created by potrace 1.16, written by Peter Selinger 2001-2019
</metadata>
<g transform="translate(0.000000,1024.000000) scale(0.100000,-0.100000)"
fill="#000000" stroke="none">
<path d="M4825 8404 c-317 -30 -501 -69 -810 -174 -135 -46 -231 -87 -390
-168 -224 -114 -285 -151 -490 -298 -144 -102 -359 -295 -475 -424 -41 -46
-87 -97 -103 -113 -15 -16 -27 -31 -27 -34 0 -8 -109 -155 -143 -193 -39 -43
-77 -97 -77 -111 0 -5 -26 -51 -58 -102 -32 -51 -73 -121 -91 -157 -19 -36
-42 -77 -53 -92 -10 -14 -18 -33 -18 -40 0 -8 -9 -23 -20 -33 -11 -10 -20 -24
-20 -32 0 -8 -3 -12 -8 -10 -4 3 -7 -7 -8 -22 -1 -15 -20 -66 -42 -113 -23
-47 -42 -90 -42 -96 0 -6 -9 -27 -20 -47 -11 -20 -20 -44 -20 -55 0 -10 -4
-21 -9 -24 -5 -3 -16 -27 -24 -53 -17 -51 -19 -59 -38 -163 -7 -36 -16 -67
-20 -70 -3 -3 -10 -25 -14 -50 -4 -25 -12 -54 -18 -65 -6 -11 -12 -38 -13 -60
-2 -60 -14 -167 -20 -176 -21 -34 -16 -683 6 -744 4 -11 8 -49 9 -85 1 -35 6
-69 10 -75 5 -5 17 -65 27 -132 10 -68 22 -123 26 -123 4 0 11 -18 14 -40 4
-22 11 -43 15 -46 5 -3 9 -14 9 -26 0 -11 6 -34 14 -51 16 -38 77 -203 80
-220 5 -20 16 -50 34 -85 9 -19 17 -41 18 -49 2 -9 8 -19 15 -23 6 -4 9 -12 5
-18 -3 -5 0 -12 7 -15 11 -4 62 -97 91 -167 6 -14 13 -27 16 -30 3 -3 13 -21
23 -40 41 -79 51 -96 68 -107 9 -7 28 -30 40 -50 13 -21 25 -40 29 -43 3 -3
14 -21 24 -41 11 -21 31 -50 45 -67 14 -17 35 -43 46 -58 11 -15 25 -32 30
-38 6 -6 29 -36 51 -66 23 -30 52 -67 65 -81 41 -45 70 -83 82 -108 17 -36
139 -158 189 -190 23 -15 51 -35 60 -45 10 -9 19 -16 20 -14 7 6 68 -47 68
-59 0 -7 6 -10 14 -7 7 3 23 -6 34 -20 11 -14 25 -26 31 -26 6 0 11 -4 11 -10
0 -5 7 -10 16 -10 9 0 25 -11 36 -26 11 -14 22 -23 25 -20 3 2 22 -13 44 -35
21 -21 46 -39 54 -39 8 0 15 -5 15 -12 0 -6 3 -8 6 -5 8 8 66 -23 77 -40 4 -7
12 -13 18 -13 5 0 26 -10 47 -23 20 -13 66 -36 102 -51 36 -16 73 -35 82 -43
9 -8 22 -12 27 -8 6 3 11 0 11 -7 0 -7 11 -14 23 -14 13 -1 42 -13 65 -28 23
-14 45 -26 50 -26 4 0 27 -9 49 -20 53 -25 220 -81 258 -86 17 -2 31 -8 33
-13 2 -5 12 -7 22 -4 11 3 20 1 20 -4 0 -9 92 -32 160 -40 19 -2 40 -9 47 -15
7 -6 13 -7 13 -3 0 4 8 1 17 -6 14 -12 15 -12 9 -1 -7 11 -4 12 12 3 11 -6 31
-10 44 -10 13 1 41 -2 63 -5 99 -15 183 -23 300 -30 39 -3 72 -6 75 -7 3 -1
10 0 15 1 6 1 96 4 200 6 219 5 228 6 237 19 5 6 8 5 8 -3 0 -7 4 -11 9 -8 9
6 92 18 138 20 11 1 19 5 16 9 -2 4 10 7 29 6 95 -3 439 78 658 156 185 66
440 186 610 288 205 123 496 354 661 524 66 67 152 168 219 258 19 25 57 74
84 108 26 34 53 72 59 85 5 12 14 22 18 22 5 0 18 19 30 42 12 24 36 63 54 88
36 50 198 351 210 390 4 14 19 48 33 75 60 118 144 373 180 545 63 299 76 422
77 695 0 339 -31 565 -120 870 -129 444 -345 856 -642 1230 -97 122 -313 345
-419 434 -465 388 -1006 630 -1644 735 -227 38 -529 45 -795 20z m565 -429
c36 -9 69 -14 116 -19 22 -3 67 -12 98 -21 32 -9 60 -14 63 -11 4 3 11 2 17
-3 6 -5 47 -16 91 -25 124 -26 270 -76 402 -137 24 -10 47 -19 53 -19 12 0
103 -41 110 -50 3 -3 57 -32 121 -64 64 -32 127 -68 141 -79 13 -12 31 -26 40
-32 8 -5 28 -19 44 -29 16 -11 58 -39 94 -62 36 -23 75 -52 87 -63 12 -12 25
-21 28 -21 18 0 246 -215 316 -297 35 -42 96 -114 136 -159 77 -89 121 -152
198 -279 96 -157 122 -208 230 -445 46 -99 112 -303 130 -396 2 -16 16 -78 30
-139 36 -153 49 -226 62 -350 7 -72 6 -280 -2 -350 -3 -27 -7 -86 -10 -130 -2
-44 -9 -105 -15 -135 -6 -30 -13 -66 -16 -80 -10 -56 -27 -126 -35 -148 -5
-13 -9 -34 -9 -47 0 -42 -95 -316 -147 -425 -28 -58 -56 -120 -63 -137 -7 -18
-16 -33 -21 -33 -5 0 -9 -8 -9 -17 -1 -35 -141 -261 -200 -323 -8 -9 -33 -42
-55 -74 -22 -32 -47 -69 -55 -81 -116 -169 -434 -450 -712 -628 -210 -135
-607 -304 -852 -362 -228 -54 -371 -69 -661 -69 -304 0 -428 14 -690 78 -836
206 -1548 775 -1933 1543 -131 261 -228 557 -266 813 -58 397 -42 778 49 1135
53 206 153 495 200 575 8 14 26 50 41 80 14 30 36 69 48 85 13 17 30 44 39 61
17 32 162 243 212 308 72 93 177 205 265 283 503 447 1072 711 1675 778 119
13 561 13 615 0z"/>
<path d="M3388 6803 c-3 -45 -10 -79 -17 -81 -15 -5 -14 -33 2 -29 9 1 13 -49
15 -218 4 -246 -5 -436 -19 -414 -6 10 -9 8 -9 -8 0 -13 4 -23 10 -23 5 0 8
-27 7 -59 0 -33 -5 -57 -9 -55 -4 3 -8 -7 -7 -23 0 -25 1 -26 9 -8 6 15 9 8 9
-28 1 -30 -3 -46 -9 -42 -5 3 -10 1 -10 -4 0 -6 4 -11 9 -11 10 0 11 -15 13
-405 3 -445 -2 -755 -12 -755 -6 0 -10 -140 -11 -347 0 -192 -2 -406 -5 -478
-9 -297 -11 -371 -6 -382 3 -9 24 -13 61 -12 40 0 50 3 36 9 -15 6 -6 9 33 9
35 1 52 -3 52 -11 0 -10 2 -10 9 0 6 10 30 13 87 12 44 -1 105 -2 138 -1 l58
1 -3 753 -4 752 487 -3 487 -3 -6 208 c-3 114 -8 210 -10 213 -2 2 -218 3
-481 3 l-477 -2 -3 487 c-3 540 0 616 26 608 22 -7 26 -7 550 -6 l442 0 0 215
0 215 -719 0 -718 0 -5 -77z"/>
<path d="M5146 6809 c-4 -39 -7 -180 -6 -313 3 -508 1 -658 -12 -650 -7 5 -8
3 -2 -7 10 -17 10 -21 13 -479 3 -612 1 -821 -6 -817 -11 7 -14 -47 -19 -262
-2 -116 0 -189 7 -197 7 -8 6 -13 -1 -16 -13 -4 -18 -481 -6 -535 5 -19 3 -48
-4 -68 -9 -28 -9 -39 1 -51 10 -12 14 -12 20 -2 6 9 59 12 217 12 l209 0 -3
741 c-2 507 0 734 7 723 5 -10 20 -18 32 -18 12 0 36 -14 54 -30 18 -17 35
-30 38 -30 3 0 19 -12 35 -27 16 -16 42 -38 59 -51 17 -13 31 -30 31 -38 0 -8
5 -14 10 -14 6 0 10 -7 10 -16 0 -9 13 -33 29 -53 16 -20 28 -39 27 -42 -2 -8
61 -78 66 -74 2 2 4 -4 5 -13 1 -18 161 -244 252 -358 36 -44 80 -112 76 -116
-3 -3 4 -13 15 -23 11 -10 20 -24 20 -31 0 -7 15 -29 33 -48 39 -41 147 -181
147 -190 0 -8 13 -25 55 -69 16 -18 30 -35 30 -38 0 -15 100 -107 106 -98 4 6
9 4 12 -6 4 -9 3 -13 -3 -10 -20 12 -10 -6 16 -30 15 -14 33 -25 41 -25 8 0
12 -4 9 -8 -2 -4 48 -6 112 -4 64 1 176 -1 247 -5 72 -4 147 -6 168 -3 l38 5
-45 50 c-25 28 -80 95 -123 150 -42 55 -91 116 -108 135 -44 48 -237 302 -310
409 -33 48 -94 130 -135 182 -42 52 -116 148 -165 214 -49 66 -129 165 -178
219 -48 55 -95 112 -103 128 l-15 28 49 0 c186 0 501 169 587 316 14 24 29 44
34 44 14 0 115 162 149 240 48 106 62 183 62 346 0 175 -26 289 -99 439 -132
268 -325 437 -599 522 l-87 27 -546 4 -546 3 -7 -72z m1008 -369 c27 -6 70
-25 97 -45 27 -19 53 -35 58 -35 16 0 112 -93 151 -145 47 -63 115 -196 135
-262 19 -61 19 -129 0 -218 -31 -148 -109 -252 -242 -322 -109 -58 -144 -63
-490 -63 l-313 0 0 549 0 550 43 4 c70 8 509 -2 561 -13z"/>
<path d="M2780 5384 c-70 -11 -93 -18 -133 -45 -39 -26 -117 -116 -117 -135 0
-3 -9 -18 -20 -34 -24 -33 -31 -104 -18 -167 8 -34 22 -57 55 -90 25 -24 47
-42 50 -40 2 3 22 -1 45 -7 50 -15 195 2 248 29 111 56 167 147 157 256 -11
121 -92 209 -212 228 -22 4 -47 6 -55 5z"/>
<path d="M7399 5375 c-55 -18 -133 -83 -159 -134 -10 -21 -26 -43 -34 -50 -19
-16 -22 -114 -6 -172 29 -104 86 -139 226 -141 139 -2 184 19 248 112 63 92
71 124 51 203 -19 76 -56 123 -123 160 -64 35 -139 43 -203 22z"/>
</g>
</svg>